<svg width="70.000000" height="70.000000" viewBox="0 0 70 70" fill="none" xmlns="http://www.w3.org/2000/svg" xmlns:xlink="http://www.w3.org/1999/xlink">
	<desc>
			Created with Pixso.
	</desc>
	<defs/>
	<circle id="椭圆 14" cx="35.000000" cy="35.000000" r="35.000000" fill="#67C9F6" fill-opacity="1.000000"/>
	<circle id="椭圆 14" cx="35.000000" cy="35.000000" r="34.500000" stroke="#FFFFFF" stroke-opacity="0" stroke-width="1.000000"/>
	<path id="path" d="M18 52.29C18 52.68 18.32 53 18.73 53L52.26 53C52.66 53 52.99 52.68 52.99 52.29L52.99 51.44C53.01 51.19 53.04 49.91 52.2 48.51C51.67 47.62 50.91 46.86 49.92 46.23C48.73 45.48 47.22 44.93 45.38 44.6C45.37 44.6 44.01 44.42 42.62 44.06C40.19 43.44 39.98 42.9 39.98 42.89C39.97 42.84 39.95 42.78 39.92 42.74C39.9 42.63 39.85 42.25 39.94 41.22C40.18 38.6 41.59 37.05 42.71 35.81C43.07 35.42 43.41 35.05 43.67 34.68C44.78 33.12 44.89 31.34 44.89 31.23C44.89 31 44.86 30.82 44.81 30.65C44.7 30.31 44.49 30.09 44.34 29.94C44.3 29.9 44.27 29.86 44.24 29.83C44.23 29.81 44.2 29.78 44.23 29.6C44.32 28.95 44.38 28.41 44.41 27.89C44.46 26.97 44.5 25.59 44.26 24.25C44.24 24.02 44.18 23.78 44.11 23.49C43.85 22.56 43.45 21.77 42.89 21.12C42.79 21.01 40.45 18.54 33.63 18.03C32.69 17.96 31.76 18 30.84 18.05C30.62 18.06 30.32 18.07 30.04 18.15C29.33 18.33 29.15 18.78 29.1 19.03C29.01 19.44 29.16 19.76 29.25 19.97C29.27 20 29.28 20.04 29.25 20.14C29.1 20.39 28.85 20.61 28.59 20.82C28.52 20.88 26.81 22.35 26.72 24.28C26.46 25.74 26.48 28.02 26.78 29.6C26.8 29.68 26.83 29.81 26.78 29.9C26.46 30.19 26.1 30.51 26.1 31.26C26.1 31.34 26.21 33.12 27.32 34.68C27.58 35.05 27.92 35.42 28.27 35.81C29.4 37.05 30.81 38.6 31.04 41.22C31.14 42.25 31.09 42.63 31.07 42.74C31.04 42.78 31.02 42.84 31.01 42.89C31.01 42.9 30.8 43.44 28.38 44.06C26.99 44.42 25.62 44.6 25.58 44.6C23.8 44.91 22.29 45.44 21.1 46.19C20.12 46.81 19.35 47.58 18.82 48.47C17.96 49.9 17.99 51.2 18 51.44L18 52.29Z" fill="#FFFFFF" fill-opacity="1.000000" fill-rule="nonzero"/>
	<path id="path" d="M18.73 53L52.26 53C52.66 53 52.99 52.68 52.99 52.29L52.99 51.44C53.01 51.19 53.04 49.91 52.2 48.51C51.67 47.62 50.91 46.86 49.92 46.23C48.73 45.48 47.22 44.93 45.38 44.6C45.37 44.6 44.01 44.42 42.62 44.06C40.19 43.44 39.98 42.9 39.98 42.89C39.97 42.84 39.95 42.78 39.92 42.74C39.9 42.63 39.85 42.25 39.94 41.22C40.18 38.6 41.59 37.05 42.71 35.81C43.07 35.42 43.41 35.05 43.67 34.68C44.78 33.12 44.89 31.34 44.89 31.23C44.89 31 44.86 30.82 44.81 30.65C44.7 30.31 44.49 30.09 44.34 29.94C44.3 29.9 44.27 29.86 44.24 29.83C44.23 29.81 44.2 29.78 44.23 29.6C44.32 28.95 44.38 28.41 44.41 27.89C44.46 26.97 44.5 25.59 44.26 24.25C44.24 24.02 44.18 23.78 44.11 23.49C43.85 22.56 43.45 21.77 42.89 21.12C42.79 21.01 40.45 18.54 33.63 18.03C32.69 17.96 31.76 18 30.84 18.05C30.62 18.06 30.32 18.07 30.04 18.15C29.33 18.33 29.15 18.78 29.1 19.03C29.01 19.44 29.16 19.76 29.25 19.97C29.27 20 29.28 20.04 29.25 20.14C29.1 20.39 28.85 20.61 28.59 20.82C28.52 20.88 26.81 22.35 26.72 24.28C26.46 25.74 26.48 28.02 26.78 29.6C26.8 29.68 26.83 29.81 26.78 29.9C26.46 30.19 26.1 30.51 26.1 31.26C26.1 31.34 26.21 33.12 27.32 34.68C27.58 35.05 27.92 35.42 28.27 35.81C29.4 37.05 30.81 38.6 31.04 41.22C31.14 42.25 31.09 42.63 31.07 42.74C31.04 42.78 31.02 42.84 31.01 42.89C31.01 42.9 30.8 43.44 28.38 44.06C26.99 44.42 25.62 44.6 25.58 44.6C23.8 44.91 22.29 45.44 21.1 46.19C20.12 46.81 19.35 47.58 18.82 48.47C17.96 49.9 17.99 51.2 18 51.44L18 52.29C18 52.68 18.32 53 18.73 53Z" stroke="#808080" stroke-opacity="0" stroke-width="1.500000" stroke-linejoin="round"/>
</svg>
